<svg viewBox="0 0 32 32" width="2em" height="2em" fill="currentColor"><g fill="none" fill-rule="evenodd"><path d="M7.812 21.26c1.597 0 2.892 1.285 2.892 2.87V27H8.778v-2.87a.961.961 0 00-.966-.956H3V21.26h4.812zm21.188 0v1.914h-4.812a.961.961 0 00-.966.956V27h-1.926v-2.87c0-1.585 1.295-2.87 2.892-2.87H29zM10.704 5v2.87c0 1.585-1.295 2.87-2.892 2.87H3V8.825h4.812a.961.961 0 00.966-.956V5h1.926zm12.518 0v2.87c0 .528.432.956.966.956H29v1.913h-4.812c-1.597 0-2.892-1.284-2.892-2.87V5h1.926z" fill="#fff"></path></g></svg>