<svg viewBox="0 0 32 32" width="3em" height="3em"  fill="currentcolor"><g fill="none" fill-rule="evenodd"><path d="M5.92 18.381v4.762c0 .526.43.952.963.952H13.6V26H6.883C5.29 26 4 24.721 4 23.143V18.38h1.92zm22.08 0v4.762C28 24.72 26.709 26 25.117 26H18.4v-1.905h6.717a.958.958 0 00.963-.952V18.38H28zM13.6 6v1.905H6.883a.958.958 0 00-.963.952v4.762H4V8.857C4 7.28 5.291 6 6.883 6H13.6zm11.517 0C26.71 6 28 7.279 28 8.857v4.762h-1.92V8.857a.958.958 0 00-.963-.952H18.4V6h6.717z" fill="#FFFFFF"></path></g></svg>